STARTFONT 2.1
COMMENT
COMMENT Converted from OpenType font "Manrope-ExtraLight.otf" by "otf2bdf 3.0".
COMMENT
FONT -FreeType-Manrope ExtraLight-Medium-R-Normal--43-310-100-100-P-185-ISO10646-1
SIZE 31 100 100
FONTBOUNDINGBOX 40 53 -1 -11
STARTPROPERTIES 19
FOUNDRY "FreeType"
FAMILY_NAME "Manrope ExtraLight"
WEIGHT_NAME "Medium"
SLANT "R"
SETWIDTH_NAME "Normal"
ADD_STYLE_NAME ""
PIXEL_SIZE 43
POINT_SIZE 310
RESOLUTION_X 100
RESOLUTION_Y 100
SPACING "P"
AVERAGE_WIDTH 185
CHARSET_REGISTRY "ISO10646"
CHARSET_ENCODING "1"
FONT_ASCENT 45
FONT_DESCENT 12
COPYRIGHT "Copyright 2019-2021 The Manrope Project Authors (https://github.com/sharanda/manrope)"
_OTF_FONTFILE "Manrope-ExtraLight.otf"
_OTF_PSNAME "Manrope-ExtraLight"
ENDPROPERTIES
CHARS 191
STARTCHAR 0020
ENCODING 32
SWIDTH 209 0
DWIDTH 9 0
BBX 0 0 0 0
BITMAP
ENDCHAR
STARTCHAR 0021
ENCODING 33
SWIDTH 278 0
DWIDTH 12 0
BBX 2 31 5 0
BITMAP
C0
C0
C0
C0
C0
C0
C0
C0
C0
C0
C0
C0
C0
C0
C0
C0
C0
C0
C0
C0
C0
C0
C0
00
00
00
00
00
C0
C0
C0
ENDCHAR
STARTCHAR 0022
ENCODING 34
SWIDTH 348 0
DWIDTH 15 0
BBX 7 8 3 23
BITMAP
82
82
82
82
82
82
82
82
ENDCHAR
STARTCHAR 0023
ENCODING 35
SWIDTH 905 0
DWIDTH 39 0
BBX 34 31 3 0
BITMAP
0003006000
0003004000
000300C000
000300C000
000600C000
0006018000
0006018000
0004018000
000C018000
1FFFFFFFC0
3FFFFFFF80
0018030000
0018020000
0018060000
0018060000
0030060000
0030040000
00300C0000
00300C0000
FFFFFFFE00
FFFFFFFE00
0060180000
0040180000
00C0180000
00C0300000
00C0300000
0080300000
0180200000
0180600000
0180600000
0300600000
ENDCHAR
STARTCHAR 0024
ENCODING 36
SWIDTH 557 0
DWIDTH 24 0
BBX 22 39 1 -4
BITMAP
003000
003000
003000
003000
01FE00
07FF80
0E01C0
180060
300030
300018
200018
60000C
60000C
300000
300000
180000
1E0000
07C000
01F800
003F00
0003E0
000070
000038
000018
00000C
00000C
00000C
C0000C
60000C
600018
300018
180030
0E00E0
07FFC0
00FE00
003000
003000
003000
003000
ENDCHAR
STARTCHAR 0025
ENCODING 37
SWIDTH 905 0
DWIDTH 39 0
BBX 33 31 3 0
BITMAP
07C0000200
1FF0000700
3838000E00
601C001C00
C00C003800
C006007000
800600E000
800601C000
C006038000
C006070000
C00C0E0000
600C1C0000
7838380000
1FF0700000
0FC0E00000
0001C00000
000381F000
000707FC00
000E0E0E00
001C180300
0038380380
0070300180
00E0300180
01C0300180
0380300180
0700300180
0E00300380
1C00180300
38000E0E00
700007FC00
200001F000
ENDCHAR
STARTCHAR 0026
ENCODING 38
SWIDTH 650 0
DWIDTH 28 0
BBX 25 31 2 0
BITMAP
01FC0000
07FF0000
0E03C000
1C00C000
18006000
30000000
30000000
30000000
30000000
30000000
18000000
18000000
0C000000
06000000
03000000
0F800000
3CE00000
30700800
60380800
600C0800
C0060800
C0030800
C0018800
C000D800
C0007800
60001800
70003800
38007600
1C01E700
0FFF8380
01FE0100
ENDCHAR
STARTCHAR 0027
ENCODING 39
SWIDTH 185 0
DWIDTH 8 0
BBX 1 8 3 23
BITMAP
80
80
80
80
80
80
80
80
ENDCHAR
STARTCHAR 0028
ENCODING 40
SWIDTH 418 0
DWIDTH 18 0
BBX 9 43 6 -7
BITMAP
0080
0180
0380
0300
0600
0C00
0C00
1800
1800
3000
3000
3000
6000
6000
6000
4000
C000
C000
C000
C000
C000
C000
C000
C000
C000
C000
C000
4000
6000
6000
6000
2000
3000
3000
1800
1800
0C00
0C00
0600
0700
0300
0180
0080
ENDCHAR
STARTCHAR 0029
ENCODING 41
SWIDTH 418 0
DWIDTH 18 0
BBX 10 43 2 -7
BITMAP
4000
E000
6000
3000
3800
1800
0C00
0C00
0600
0600
0200
0300
0300
0100
0180
0180
0180
0180
0080
0080
00C0
00C0
00C0
0080
0080
0180
0180
0180
0180
0100
0300
0300
0300
0600
0600
0C00
0C00
1800
1800
3000
6000
E000
C000
ENDCHAR
STARTCHAR 002A
ENCODING 42
SWIDTH 418 0
DWIDTH 18 0
BBX 14 14 1 17
BITMAP
0300
0300
0300
0300
0304
F33C
7FF8
0FC0
0380
06C0
0CE0
1C60
1830
1000
ENDCHAR
STARTCHAR 002B
ENCODING 43
SWIDTH 580 0
DWIDTH 25 0
BBX 19 20 3 6
BITMAP
004000
004000
004000
004000
004000
004000
004000
004000
004000
FFFFE0
FFFFE0
004000
004000
004000
004000
004000
004000
004000
004000
004000
ENDCHAR
STARTCHAR 002C
ENCODING 44
SWIDTH 232 0
DWIDTH 10 0
BBX 2 8 3 -4
BITMAP
C0
C0
C0
C0
40
40
40
80
ENDCHAR
STARTCHAR 002D
ENCODING 45
SWIDTH 418 0
DWIDTH 18 0
BBX 13 2 3 13
BITMAP
FFF8
FFF8
ENDCHAR
STARTCHAR 002E
ENCODING 46
SWIDTH 209 0
DWIDTH 9 0
BBX 3 3 3 0
BITMAP
E0
E0
E0
ENDCHAR
STARTCHAR 002F
ENCODING 47
SWIDTH 348 0
DWIDTH 15 0
BBX 10 31 3 0
BITMAP
00C0
0180
0180
0180
0180
0300
0300
0300
0300
0600
0600
0600
0400
0C00
0C00
0C00
1800
1800
1800
1800
3000
3000
3000
3000
6000
6000
6000
4000
C000
C000
C000
ENDCHAR
STARTCHAR 0030
ENCODING 48
SWIDTH 580 0
DWIDTH 25 0
BBX 19 31 3 0
BITMAP
03F000
0FFE00
1C0700
380380
7001C0
6000C0
C00040
C00060
C00060
C00060
C00060
C00060
C00060
C00060
C00060
C00060
C00060
C00060
C00060
C00060
C00060
C00060
C00060
C00060
C00040
6000C0
7001C0
380380
1C0700
0FFE00
03F000
ENDCHAR
STARTCHAR 0031
ENCODING 49
SWIDTH 348 0
DWIDTH 15 0
BBX 7 31 3 0
BITMAP
06
1E
7E
E6
86
06
06
06
06
06
06
06
06
06
06
06
06
06
06
06
06
06
06
06
06
06
06
06
06
06
06
ENDCHAR
STARTCHAR 0032
ENCODING 50
SWIDTH 557 0
DWIDTH 24 0
BBX 20 31 2 0
BITMAP
01F800
07FE00
0E0780
1801C0
3000C0
600060
600060
400020
C00030
000030
000030
000020
000060
000060
0000C0
0001C0
000380
000700
000E00
001C00
003800
007000
00C000
018000
070000
0E0000
1C0000
380000
700000
FFFFF0
FFFFF0
ENDCHAR
STARTCHAR 0033
ENCODING 51
SWIDTH 534 0
DWIDTH 23 0
BBX 18 31 2 0
BITMAP
7FFFC0
7FFFC0
000180
000300
000600
001C00
003800
007000
00E000
01C000
030000
07F000
0FFC00
0C0E00
000300
000180
0001C0
0000C0
0000C0
0000C0
0000C0
0000C0
0000C0
0000C0
C000C0
C001C0
600180
700300
380F00
1FFC00
07F000
ENDCHAR
STARTCHAR 0034
ENCODING 52
SWIDTH 580 0
DWIDTH 25 0
BBX 21 31 2 0
BITMAP
001800
003000
003000
006000
006000
00C000
00C000
018000
018000
030000
030000
060000
060000
060180
0C0180
0C0180
180180
180180
300180
300180
600180
600180
C00180
FFFFF8
FFFFF8
000180
000180
000180
000180
000180
000180
ENDCHAR
STARTCHAR 0035
ENCODING 53
SWIDTH 580 0
DWIDTH 25 0
BBX 20 31 2 0
BITMAP
3FFFC0
3FFFC0
300000
200000
200000
200000
600000
600000
600000
600000
600000
61F800
67FF00
7E0780
7801C0
7000E0
200060
000030
000030
000030
000010
000010
000030
C00030
C00030
600060
7000E0
3801C0
1E0780
07FF00
01F800
ENDCHAR
STARTCHAR 0036
ENCODING 54
SWIDTH 627 0
DWIDTH 27 0
BBX 21 31 3 0
BITMAP
01F800
07FF00
1E0380
3801C0
300060
600040
600000
C00000
C00000
C00000
C00000
C0F800
C7FE00
CE0780
D801C0
F000E0
E00060
E00030
C00030
C00018
C00018
C00018
C00018
C00030
600030
600070
300060
3800C0
0E0380
07FF00
01FC00
ENDCHAR
STARTCHAR 0037
ENCODING 55
SWIDTH 487 0
DWIDTH 21 0
BBX 17 31 2 0
BITMAP
FFFF80
FFFF80
000300
000300
000200
000600
000600
000C00
000C00
001800
001800
001800
003000
003000
006000
006000
006000
00C000
00C000
018000
018000
018000
030000
030000
060000
060000
060000
0C0000
0C0000
180000
180000
ENDCHAR
STARTCHAR 0038
ENCODING 56
SWIDTH 557 0
DWIDTH 24 0
BBX 18 31 3 0
BITMAP
03F000
1FFC00
3C0F00
700380
600180
600180
C000C0
C000C0
C000C0
C000C0
600180
600180
300300
3C0F00
0FFC00
1FFE00
380700
700380
E001C0
C000C0
C000C0
C000C0
800040
C000C0
C000C0
C000C0
E001C0
700380
380700
1FFE00
03F000
ENDCHAR
STARTCHAR 0039
ENCODING 57
SWIDTH 627 0
DWIDTH 27 0
BBX 21 31 3 0
BITMAP
01FC00
07FF00
1E0380
3800C0
300060
600070
600030
C00030
C00018
C00018
C00018
C00018
C00038
600038
600078
300078
1801D8
0E0798
07FE18
00F818
000018
000018
000018
000030
000030
200070
300060
1801C0
0E0380
07FF00
01FC00
ENDCHAR
STARTCHAR 003A
ENCODING 58
SWIDTH 278 0
DWIDTH 12 0
BBX 2 16 5 4
BITMAP
C0
C0
C0
00
00
00
00
00
00
00
00
00
00
C0
C0
C0
ENDCHAR
STARTCHAR 003B
ENCODING 59
SWIDTH 278 0
DWIDTH 12 0
BBX 2 27 5 -4
BITMAP
C0
C0
C0
00
00
00
00
00
00
00
00
00
00
00
00
00
00
00
00
C0
C0
C0
C0
40
40
40
C0
ENDCHAR
STARTCHAR 003C
ENCODING 60
SWIDTH 603 0
DWIDTH 26 0
BBX 11 19 6 3
BITMAP
0040
00E0
01C0
0380
0700
0E00
1C00
3800
7000
E000
6000
3000
1800
0C00
0600
0300
0180
00C0
0060
ENDCHAR
STARTCHAR 003D
ENCODING 61
SWIDTH 743 0
DWIDTH 32 0
BBX 22 9 5 11
BITMAP
FFFFFC
FFFFFC
000000
000000
000000
000000
000000
FFFFFC
FFFFFC
ENDCHAR
STARTCHAR 003E
ENCODING 62
SWIDTH 603 0
DWIDTH 26 0
BBX 10 20 9 3
BITMAP
8000
C000
6000
3000
1800
0C00
0600
0300
0180
00C0
00C0
0180
0300
0600
0C00
1800
3000
6000
C000
8000
ENDCHAR
STARTCHAR 003F
ENCODING 63
SWIDTH 510 0
DWIDTH 22 0
BBX 18 31 2 0
BITMAP
03F000
1FFC00
380F00
700300
600180
C00180
C00180
C000C0
0000C0
000180
000180
000380
000300
000E00
001C00
003000
006000
00C000
00C000
018000
018000
018000
018000
000000
000000
000000
000000
000000
018000
018000
018000
ENDCHAR
STARTCHAR 0040
ENCODING 64
SWIDTH 905 0
DWIDTH 39 0
BBX 32 33 3 -5
BITMAP
0007F000
003FFF00
00F807C0
03C000E0
07000070
0E000038
0C00001C
1800000C
38000006
30000006
70000003
6003C003
600FFC03
601C3C03
40181C03
C0300C03
C0300C03
C0300C03
60300C03
60181C06
601C3E06
600FF71C
3003C3F8
300000C0
38000000
18000000
0C000000
06000000
07800000
01C00180
00F80F80
003FFE00
0007F000
ENDCHAR
STARTCHAR 0041
ENCODING 65
SWIDTH 603 0
DWIDTH 26 0
BBX 24 31 1 0
BITMAP
001800
001C00
003C00
003C00
006600
006600
006600
00C300
00C300
00C180
018180
018180
0180C0
0300C0
0300C0
060060
060060
060060
0C0030
0C0030
0C0018
1FFFF8
1FFFF8
18000C
30000C
30000C
600006
600006
600006
C00003
C00003
ENDCHAR
STARTCHAR 0042
ENCODING 66
SWIDTH 603 0
DWIDTH 26 0
BBX 22 31 3 0
BITMAP
FFFE00
FFFF80
C001C0
C000E0
C00060
C00030
C00030
C00030
C00030
C00030
C00070
C00060
C000E0
C003C0
FFFF00
FFFFC0
C000E0
C00070
C00038
C00018
C00018
C0001C
C0000C
C0000C
C00018
C00018
C00038
C00070
C000E0
FFFFC0
FFFF00
ENDCHAR
STARTCHAR 0043
ENCODING 67
SWIDTH 696 0
DWIDTH 30 0
BBX 27 31 1 0
BITMAP
003FC000
01FFF800
03C01E00
07000700
0C000380
18000180
380000C0
300000E0
70000060
60000060
60000000
60000000
C0000000
C0000000
C0000000
C0000000
C0000000
C0000000
C0000000
60000000
60000000
60000060
60000060
300000E0
380000C0
18000180
0C000380
07000700
03C01E00
01FFF800
003FC000
ENDCHAR
STARTCHAR 0044
ENCODING 68
SWIDTH 650 0
DWIDTH 28 0
BBX 23 31 3 0
BITMAP
FFFE00
FFFF80
C001C0
C00070
C00030
C00018
C00018
C0000C
C0000C
C00006
C00006
C00006
C00006
C00006
C00006
C00006
C00006
C00006
C00006
C00006
C00006
C00006
C0000C
C0000C
C0001C
C00018
C00030
C00070
C001E0
FFFF80
FFFE00
ENDCHAR
STARTCHAR 0045
ENCODING 69
SWIDTH 557 0
DWIDTH 24 0
BBX 19 31 3 0
BITMAP
FFFFE0
FFFFE0
C00000
C00000
C00000
C00000
C00000
C00000
C00000
C00000
C00000
C00000
C00000
C00000
FFFF00
FFFF00
C00000
C00000
C00000
C00000
C00000
C00000
C00000
C00000
C00000
C00000
C00000
C00000
C00000
FFFFE0
FFFFE0
ENDCHAR
STARTCHAR 0046
ENCODING 70
SWIDTH 487 0
DWIDTH 21 0
BBX 17 31 3 0
BITMAP
FFFF80
FFFF80
C00000
C00000
C00000
C00000
C00000
C00000
C00000
C00000
C00000
C00000
C00000
C00000
FFFE00
FFFE00
C00000
C00000
C00000
C00000
C00000
C00000
C00000
C00000
C00000
C00000
C00000
C00000
C00000
C00000
C00000
ENDCHAR
STARTCHAR 0047
ENCODING 71
SWIDTH 696 0
DWIDTH 30 0
BBX 27 31 1 0
BITMAP
003FC000
01FFF800
03C03C00
0F000E00
0C000300
18000180
380001C0
30000080
60000000
60000000
60000000
60000000
C0000000
C0000000
C0000000
C0007FE0
C0007FE0
C0000060
C0000060
60000060
60000060
60000060
70000060
300000C0
380000C0
18000180
0C000380
07000700
03C01E00
01FFF800
003FC000
ENDCHAR
STARTCHAR 0048
ENCODING 72
SWIDTH 650 0
DWIDTH 28 0
BBX 22 31 3 0
BITMAP
C00004
C00004
C00004
C00004
C00004
C00004
C00004
C00004
C00004
C00004
C00004
C00004
C00004
C00004
FFFFFC
FFFFFC
C00004
C00004
C00004
C00004
C00004
C00004
C00004
C00004
C00004
C00004
C00004
C00004
C00004
C00004
C00004
ENDCHAR
STARTCHAR 0049
ENCODING 73
SWIDTH 209 0
DWIDTH 9 0
BBX 2 31 3 0
BITMAP
C0
C0
C0
C0
C0
C0
C0
C0
C0
C0
C0
C0
C0
C0
C0
C0
C0
C0
C0
C0
C0
C0
C0
C0
C0
C0
C0
C0
C0
C0
C0
ENDCHAR
STARTCHAR 004A
ENCODING 74
SWIDTH 441 0
DWIDTH 19 0
BBX 15 31 0 0
BITMAP
0002
0002
0002
0002
0002
0002
0002
0002
0002
0002
0002
0002
0002
0002
0002
0002
0002
0002
0002
0002
0002
0002
0002
0002
0006
C006
E006
600C
381C
1FF8
07E0
ENDCHAR
STARTCHAR 004B
ENCODING 75
SWIDTH 557 0
DWIDTH 24 0
BBX 21 31 3 0
BITMAP
C00060
C000C0
C00180
C00300
C00E00
C01C00
C03800
C07000
C0E000
C1C000
C38000
C70000
CE0000
DC0000
F80000
D80000
CC0000
C60000
C30000
C18000
C0C000
C06000
C03000
C01800
C00C00
C00600
C00300
C00180
C000C0
C00060
C00038
ENDCHAR
STARTCHAR 004C
ENCODING 76
SWIDTH 487 0
DWIDTH 21 0
BBX 18 31 3 0
BITMAP
C00000
C00000
C00000
C00000
C00000
C00000
C00000
C00000
C00000
C00000
C00000
C00000
C00000
C00000
C00000
C00000
C00000
C00000
C00000
C00000
C00000
C00000
C00000
C00000
C00000
C00000
C00000
C00000
C00000
FFFFC0
FFFFC0
ENDCHAR
STARTCHAR 004D
ENCODING 77
SWIDTH 836 0
DWIDTH 36 0
BBX 30 31 3 0
BITMAP
C000000C
C000001C
E000001C
E000003C
F000003C
F000006C
D800006C
D800006C
CC0000CC
CC0000CC
C600018C
C600018C
C600030C
C300030C
C300060C
C180060C
C1800C0C
C0C00C0C
C0C00C0C
C060180C
C060180C
C030300C
C030300C
C030600C
C018600C
C018C00C
C00CC00C
C00D800C
C007800C
C007800C
C003000C
ENDCHAR
STARTCHAR 004E
ENCODING 78
SWIDTH 673 0
DWIDTH 29 0
BBX 22 31 3 0
BITMAP
C00004
E00004
F00004
F00004
D80004
DC0004
CC0004
C60004
C70004
C30004
C18004
C1C004
C0C004
C06004
C07004
C03004
C01804
C00C04
C00C04
C00604
C00304
C00304
C00184
C000C4
C000C4
C00064
C00034
C00034
C0001C
C0000C
C0000C
ENDCHAR
STARTCHAR 004F
ENCODING 79
SWIDTH 696 0
DWIDTH 30 0
BBX 28 31 1 0
BITMAP
003FC000
01FFF800
03C03E00
07000700
0C000380
18000180
380000C0
300000E0
70000060
60000060
60000030
60000030
C0000030
C0000030
C0000030
C0000030
C0000030
C0000030
C0000030
60000030
60000030
60000060
60000060
300000E0
380000C0
18000180
0C000380
07000700
03C01E00
01FFF800
003FE000
ENDCHAR
STARTCHAR 0050
ENCODING 80
SWIDTH 580 0
DWIDTH 25 0
BBX 21 31 3 0
BITMAP
FFFE00
FFFF80
C001C0
C000E0
C00070
C00030
C00030
C00018
C00018
C00018
C00018
C00018
C00030
C00030
C00060
C000E0
C003C0
FFFF80
FFFC00
C00000
C00000
C00000
C00000
C00000
C00000
C00000
C00000
C00000
C00000
C00000
C00000
ENDCHAR
STARTCHAR 0051
ENCODING 81
SWIDTH 696 0
DWIDTH 30 0
BBX 28 31 1 0
BITMAP
003FC000
01FFF800
03C03E00
07000700
0C000380
18000180
380000C0
300000E0
70000060
60000060
60000030
60000030
C0000030
C0000030
C0000030
C0000030
C0000030
C0000030
C0000030
60000030
60000030
60000060
60001060
30001CE0
38000EC0
18000780
0C000380
070007C0
03C01EE0
01FFF870
003FC020
ENDCHAR
STARTCHAR 0052
ENCODING 82
SWIDTH 603 0
DWIDTH 26 0
BBX 21 31 3 0
BITMAP
FFFE00
FFFF80
C001C0
C000E0
C00070
C00030
C00030
C00018
C00018
C00018
C00018
C00018
C00030
C00030
C00060
C000E0
C003C0
FFFF80
FFFE00
C00300
C00300
C00180
C00180
C000C0
C000C0
C00060
C00060
C00030
C00030
C00018
C00018
ENDCHAR
STARTCHAR 0053
ENCODING 83
SWIDTH 580 0
DWIDTH 25 0
BBX 23 31 1 0
BITMAP
00FE00
07FFC0
0F00E0
1C0030
380018
30000C
30000C
600006
600006
300000
300000
180000
0E0000
07E000
01FC00
001F80
0003F0
000078
00001C
00000C
000006
000006
000006
C00006
600006
70000E
30000C
1C0018
0F0070
03FFE0
00FF00
ENDCHAR
STARTCHAR 0054
ENCODING 84
SWIDTH 580 0
DWIDTH 25 0
BBX 25 31 0 0
BITMAP
FFFFFF80
FFFFFF80
000C0000
000C0000
000C0000
000C0000
000C0000
000C0000
000C0000
000C0000
000C0000
000C0000
000C0000
000C0000
000C0000
000C0000
000C0000
000C0000
000C0000
000C0000
000C0000
000C0000
000C0000
000C0000
000C0000
000C0000
000C0000
000C0000
000C0000
000C0000
000C0000
ENDCHAR
STARTCHAR 0055
ENCODING 85
SWIDTH 696 0
DWIDTH 30 0
BBX 24 31 3 0
BITMAP
C00003
C00003
C00003
C00003
C00003
C00003
C00003
C00003
C00003
C00003
C00003
C00003
C00003
C00003
C00003
C00003
C00003
C00003
C00003
C00003
C00003
C00003
C00006
600006
60000E
70000C
38001C
1C0038
0F00F0
03FFC0
00FF00
ENDCHAR
STARTCHAR 0056
ENCODING 86
SWIDTH 580 0
DWIDTH 25 0
BBX 25 31 0 0
BITMAP
C0000180
60000300
60000300
60000600
30000600
30000600
18000C00
18000C00
18000C00
0C001800
0C001800
0C001800
06003000
06003000
06006000
03006000
03006000
0180C000
0180C000
0180C000
00C18000
00C18000
00C18000
00630000
00630000
00660000
00360000
00360000
001C0000
001C0000
001C0000
ENDCHAR
STARTCHAR 0057
ENCODING 87
SWIDTH 905 0
DWIDTH 39 0
BBX 37 31 1 0
BITMAP
C000700018
C000700018
4000700018
6000580030
6000D80030
6000D80030
3000D80020
30018C0060
30018C0060
10018C0060
18010600C0
18030600C0
18030600C0
0C03060080
0C06030180
0C06030180
0406030180
0604018300
060C018300
060C018300
030C018200
031800C600
031800C600
011800C600
0190006C00
01B0006C00
01B0006C00
00F0006800
00E0003800
00E0003800
0060003800
ENDCHAR
STARTCHAR 0058
ENCODING 88
SWIDTH 580 0
DWIDTH 25 0
BBX 23 31 1 0
BITMAP
C0000E
60000C
700018
300038
180030
1C0060
0C00C0
0600C0
030180
030300
018300
00C600
00CC00
006C00
003800
003800
007800
006C00
00CE00
018600
018300
030180
060180
0600C0
0C0060
180060
180030
300018
60001C
E0000C
C00006
ENDCHAR
STARTCHAR 0059
ENCODING 89
SWIDTH 510 0
DWIDTH 22 0
BBX 22 31 0 0
BITMAP
C0000C
600018
700018
300030
180030
180060
0C0060
0C00C0
060180
070180
030300
018300
018600
00C600
00CC00
007800
007800
003000
003000
003000
003000
003000
003000
003000
003000
003000
003000
003000
003000
003000
003000
ENDCHAR
STARTCHAR 005A
ENCODING 90
SWIDTH 580 0
DWIDTH 25 0
BBX 21 31 2 0
BITMAP
FFFFF8
FFFFF0
000030
000060
0000E0
0000C0
000180
000180
000300
000600
000600
000C00
001800
001800
003000
003000
006000
00C000
00C000
018000
030000
030000
060000
0E0000
0C0000
180000
180000
300000
600000
7FFFF8
FFFFF8
ENDCHAR
STARTCHAR 005B
ENCODING 91
SWIDTH 394 0
DWIDTH 17 0
BBX 7 48 6 -10
BITMAP
FE
FE
C0
C0
C0
C0
C0
C0
C0
C0
C0
C0
C0
C0
C0
C0
C0
C0
C0
C0
C0
C0
C0
C0
C0
C0
C0
C0
C0
C0
C0
C0
C0
C0
C0
C0
C0
C0
C0
C0
C0
C0
C0
C0
C0
C0
FE
FE
ENDCHAR
STARTCHAR 005C
ENCODING 92
SWIDTH 348 0
DWIDTH 15 0
BBX 10 31 3 0
BITMAP
C000
C000
C000
4000
6000
6000
6000
3000
3000
3000
3000
1800
1800
1800
1800
0C00
0C00
0C00
0400
0600
0600
0600
0300
0300
0300
0300
0180
0180
0180
0180
00C0
ENDCHAR
STARTCHAR 005D
ENCODING 93
SWIDTH 394 0
DWIDTH 17 0
BBX 7 48 4 -10
BITMAP
FE
FE
06
06
06
06
06
06
06
06
06
06
06
06
06
06
06
06
06
06
06
06
06
06
06
06
06
06
06
06
06
06
06
06
06
06
06
06
06
06
06
06
06
06
06
06
FE
FE
ENDCHAR
STARTCHAR 005E
ENCODING 94
SWIDTH 673 0
DWIDTH 29 0
BBX 19 11 5 21
BITMAP
004000
00E000
01B000
031800
060C00
0C0600
180300
300180
6000C0
C00060
800020
ENDCHAR
STARTCHAR 005F
ENCODING 95
SWIDTH 650 0
DWIDTH 28 0
BBX 28 2 0 -4
BITMAP
FFFFFFF0
FFFFFFF0
ENDCHAR
STARTCHAR 0060
ENCODING 96
SWIDTH 464 0
DWIDTH 20 0
BBX 3 6 8 35
BITMAP
C0
C0
C0
60
60
20
ENDCHAR
STARTCHAR 0061
ENCODING 97
SWIDTH 534 0
DWIDTH 23 0
BBX 19 23 2 0
BITMAP
03F800
0FFF00
1C0380
3801C0
7000C0
6000C0
200060
000060
000060
0007E0
03FFE0
1FC060
380060
600060
C00060
C000E0
C000E0
C000E0
C001E0
E00360
700E60
3FFC60
0FF000
ENDCHAR
STARTCHAR 0062
ENCODING 98
SWIDTH 580 0
DWIDTH 25 0
BBX 20 31 3 0
BITMAP
C00000
C00000
C00000
C00000
C00000
C00000
C00000
C00000
C1F800
C7FF00
CE0780
D801C0
F000C0
E00060
E00060
C00030
C00030
C00030
C00030
C00030
C00030
C00030
C00030
C00030
E00060
E00060
F000C0
F801C0
DC0780
C7FE00
C1F800
ENDCHAR
STARTCHAR 0063
ENCODING 99
SWIDTH 534 0
DWIDTH 23 0
BBX 20 23 2 0
BITMAP
01FC00
0FFF00
1E0380
3800C0
700060
600030
600000
C00000
C00000
C00000
C00000
C00000
C00000
C00000
C00000
C00000
600000
600020
300060
3800C0
1E0380
07FF00
01FC00
ENDCHAR
STARTCHAR 0064
ENCODING 100
SWIDTH 580 0
DWIDTH 25 0
BBX 20 31 2 0
BITMAP
000030
000030
000030
000030
000030
000030
000030
000030
03F830
0FFE30
1C0730
3801B0
3000F0
600070
600070
C00030
C00030
C00030
C00030
C00030
C00030
C00030
C00030
C00070
E00070
600070
7000F0
3801B0
1C0730
0FFE30
01F830
ENDCHAR
STARTCHAR 0065
ENCODING 101
SWIDTH 580 0
DWIDTH 25 0
BBX 21 23 2 0
BITMAP
01FC00
0FFF00
1E0380
3800C0
700060
600030
E00030
C00030
C00018
C00018
FFFFF8
FFFFF8
C00000
C00000
C00000
C00000
600000
600030
700070
3800E0
1E03C0
07FF00
01FC00
ENDCHAR
STARTCHAR 0066
ENCODING 102
SWIDTH 348 0
DWIDTH 15 0
BBX 13 31 1 0
BITMAP
01F8
03F8
0600
0600
0400
0C00
0C00
0C00
FFF8
FFF8
0C00
0C00
0C00
0C00
0C00
0C00
0C00
0C00
0C00
0C00
0C00
0C00
0C00
0C00
0C00
0C00
0C00
0C00
0C00
0C00
0C00
ENDCHAR
STARTCHAR 0067
ENCODING 103
SWIDTH 580 0
DWIDTH 25 0
BBX 20 33 2 -10
BITMAP
03F830
0FFE30
1C0730
3801B0
7000F0
600070
600070
C00030
C00030
C00030
C00030
C00030
C00030
C00030
C00030
C00070
600070
600070
7000F0
3801B0
1C0730
0FFE30
01F830
000030
000030
000020
000060
600060
6000E0
3001C0
1C0380
0FFF00
03FC00
ENDCHAR
STARTCHAR 0068
ENCODING 104
SWIDTH 580 0
DWIDTH 25 0
BBX 19 31 3 0
BITMAP
C00000
C00000
C00000
C00000
C00000
C00000
C00000
C00000
C3F800
CFFE00
DC0700
F80180
F000C0
E000C0
C00040
C00060
C00060
C00060
C00060
C00060
C00060
C00060
C00060
C00060
C00060
C00060
C00060
C00060
C00060
C00060
C00060
ENDCHAR
STARTCHAR 0069
ENCODING 105
SWIDTH 209 0
DWIDTH 9 0
BBX 2 31 3 0
BITMAP
C0
C0
C0
00
00
00
00
00
C0
C0
C0
C0
C0
C0
C0
C0
C0
C0
C0
C0
C0
C0
C0
C0
C0
C0
C0
C0
C0
C0
C0
ENDCHAR
STARTCHAR 006A
ENCODING 106
SWIDTH 232 0
DWIDTH 10 0
BBX 6 41 0 -10
BITMAP
0C
0C
0C
00
00
00
00
00
0C
0C
0C
0C
0C
0C
0C
0C
0C
0C
0C
0C
0C
0C
0C
0C
0C
0C
0C
0C
0C
0C
0C
0C
0C
0C
0C
0C
0C
0C
1C
F8
F0
ENDCHAR
STARTCHAR 006B
ENCODING 107
SWIDTH 464 0
DWIDTH 20 0
BBX 17 31 3 0
BITMAP
C00000
C00000
C00000
C00000
C00000
C00000
C00000
C00000
C00700
C00E00
C01C00
C03000
C06000
C0C000
C18000
C30000
CE0000
DC0000
F80000
F00000
F80000
CC0000
C70000
C38000
C1C000
C0E000
C03800
C01C00
C00E00
C00700
C00380
ENDCHAR
STARTCHAR 006C
ENCODING 108
SWIDTH 209 0
DWIDTH 9 0
BBX 2 31 3 0
BITMAP
C0
C0
C0
C0
C0
C0
C0
C0
C0
C0
C0
C0
C0
C0
C0
C0
C0
C0
C0
C0
C0
C0
C0
C0
C0
C0
C0
C0
C0
C0
C0
ENDCHAR
STARTCHAR 006D
ENCODING 109
SWIDTH 812 0
DWIDTH 35 0
BBX 29 23 3 0
BITMAP
C7E01F80
DFF87FE0
F81CC070
E00F8030
E0070018
C0070018
C0030008
C0030008
C0030008
C0030008
C0030008
C0030008
C0030008
C0030008
C0030008
C0030008
C0030008
C0030008
C0030008
C0030008
C0030008
C0030008
C0030008
ENDCHAR
STARTCHAR 006E
ENCODING 110
SWIDTH 580 0
DWIDTH 25 0
BBX 19 23 3 0
BITMAP
C3F800
CFFE00
DC0700
F00180
F000C0
E000C0
C00040
C00060
C00060
C00060
C00060
C00060
C00060
C00060
C00060
C00060
C00060
C00060
C00060
C00060
C00060
C00060
C00060
ENDCHAR
STARTCHAR 006F
ENCODING 111
SWIDTH 580 0
DWIDTH 25 0
BBX 21 23 2 0
BITMAP
01FC00
0FFF00
1E03C0
3800C0
700060
600030
600030
C00030
C00018
C00018
C00018
C00018
C00018
C00018
C00018
C00030
600030
600030
700060
3800C0
1E03C0
07FF00
01FC00
ENDCHAR
STARTCHAR 0070
ENCODING 112
SWIDTH 580 0
DWIDTH 25 0
BBX 20 33 3 -10
BITMAP
C1F800
C7FF00
CE0780
D801C0
F000C0
E00060
E00060
C00030
C00030
C00030
C00030
C00030
C00030
C00030
C00030
C00030
E00060
E00060
F000C0
D801C0
CC0780
C7FE00
C1F800
C00000
C00000
C00000
C00000
C00000
C00000
C00000
C00000
C00000
C00000
ENDCHAR
STARTCHAR 0071
ENCODING 113
SWIDTH 580 0
DWIDTH 25 0
BBX 20 33 2 -10
BITMAP
03F830
0FFE30
1C0730
3801B0
7000F0
600070
600070
C00030
C00030
C00030
C00030
C00030
C00030
C00030
C00030
C00070
600070
600070
7000F0
3801B0
1C0730
0FFE30
01F830
000030
000030
000030
000030
000030
000030
000030
000030
000030
000030
ENDCHAR
STARTCHAR 0072
ENCODING 114
SWIDTH 325 0
DWIDTH 14 0
BBX 10 23 3 0
BITMAP
C3C0
CFC0
D800
F000
E000
E000
C000
C000
C000
C000
C000
C000
C000
C000
C000
C000
C000
C000
C000
C000
C000
C000
C000
ENDCHAR
STARTCHAR 0073
ENCODING 115
SWIDTH 510 0
DWIDTH 22 0
BBX 18 23 2 0
BITMAP
07F800
1FFE00
380700
600180
6000C0
C000C0
C000C0
600000
700000
3E0000
0FE000
00FC00
000F00
000380
0000C0
0000C0
0000C0
C000C0
C000C0
7001C0
380780
1FFF00
03FC00
ENDCHAR
STARTCHAR 0074
ENCODING 116
SWIDTH 371 0
DWIDTH 16 0
BBX 15 29 0 0
BITMAP
0300
0300
0300
0300
0300
0300
FFFE
FFFE
0300
0300
0300
0300
0300
0300
0300
0300
0300
0300
0300
0300
0300
0300
0300
0300
0300
0300
0180
00FE
007E
ENDCHAR
STARTCHAR 0075
ENCODING 117
SWIDTH 580 0
DWIDTH 25 0
BBX 19 23 3 0
BITMAP
800060
800060
800060
800060
800060
800060
800060
800060
800060
800060
800060
800060
800060
800060
C00060
C000E0
C000E0
C000E0
6001E0
3003E0
380760
0FFC60
03F060
ENDCHAR
STARTCHAR 0076
ENCODING 118
SWIDTH 487 0
DWIDTH 21 0
BBX 19 23 1 0
BITMAP
C00060
C000C0
6000C0
600180
600180
300180
300300
180300
180300
180600
0C0600
0C0600
0C0C00
060C00
061800
021800
031800
033000
01B000
01B000
01E000
00E000
00C000
ENDCHAR
STARTCHAR 0077
ENCODING 119
SWIDTH 743 0
DWIDTH 32 0
BBX 30 23 1 0
BITMAP
C003000C
C003000C
60078008
60078018
60078018
200CC010
300CC030
300CC030
30186030
18186060
18186060
18303060
0C3030C0
0C3030C0
0C2010C0
06601980
06601980
06601980
02C00D00
03C00F00
03C00F00
03800700
01800600
ENDCHAR
STARTCHAR 0078
ENCODING 120
SWIDTH 510 0
DWIDTH 22 0
BBX 20 23 1 0
BITMAP
C00030
600060
3000C0
380180
1C0380
0C0300
060600
030C00
019800
01F800
00F000
006000
00F000
019800
039C00
030C00
060600
0C0300
180180
3801C0
7000C0
600060
C00030
ENDCHAR
STARTCHAR 0079
ENCODING 121
SWIDTH 510 0
DWIDTH 22 0
BBX 20 34 1 -11
BITMAP
C00030
C00060
600060
6000C0
3000C0
3000C0
300180
180180
180180
0C0300
0C0300
060300
060600
060600
030400
030C00
018C00
019800
019800
00D800
00F000
007000
007000
006000
006000
004000
00C000
00C000
018000
018000
018000
030000
030000
030000
ENDCHAR
STARTCHAR 007A
ENCODING 122
SWIDTH 534 0
DWIDTH 23 0
BBX 20 23 1 0
BITMAP
7FFFF0
7FFFE0
0000E0
0001C0
000180
000300
000600
000C00
001C00
003800
003000
006000
00C000
018000
038000
070000
060000
0C0000
180000
300000
700000
7FFFE0
FFFFE0
ENDCHAR
STARTCHAR 007B
ENCODING 123
SWIDTH 394 0
DWIDTH 17 0
BBX 9 48 6 -10
BITMAP
0780
0F80
1800
1000
3000
3000
3000
3000
3000
3000
3000
3000
3000
3000
3000
3000
3000
3000
3000
3000
3000
3000
6000
C000
C000
6000
3000
3000
3000
3000
3000
3000
3000
3000
3000
3000
3000
3000
3000
3000
3000
3000
3000
3000
1800
1800
0F80
0780
ENDCHAR
STARTCHAR 007C
ENCODING 124
SWIDTH 232 0
DWIDTH 10 0
BBX 2 31 4 0
BITMAP
C0
C0
C0
C0
C0
C0
C0
C0
C0
C0
C0
C0
C0
C0
C0
C0
C0
C0
C0
C0
C0
C0
C0
C0
C0
C0
C0
C0
C0
C0
C0
ENDCHAR
STARTCHAR 007D
ENCODING 125
SWIDTH 394 0
DWIDTH 17 0
BBX 9 48 2 -10
BITMAP
F000
FC00
0C00
0600
0600
0600
0600
0600
0600
0600
0600
0600
0600
0600
0600
0600
0600
0600
0600
0600
0600
0700
0300
0180
0180
0300
0700
0600
0600
0600
0600
0600
0600
0600
0600
0600
0600
0600
0600
0600
0600
0600
0600
0600
0600
0C00
F800
F000
ENDCHAR
STARTCHAR 007E
ENCODING 126
SWIDTH 627 0
DWIDTH 27 0
BBX 17 5 5 11
BITMAP
3E0180
7F8180
FFE380
C1FF00
C07E00
ENDCHAR
STARTCHAR 00A0
ENCODING 160
SWIDTH 209 0
DWIDTH 9 0
BBX 0 0 0 0
BITMAP
ENDCHAR
STARTCHAR 00A1
ENCODING 161
SWIDTH 278 0
DWIDTH 12 0
BBX 2 31 5 -8
BITMAP
C0
C0
C0
00
00
00
00
00
C0
C0
C0
C0
C0
C0
C0
C0
C0
C0
C0
C0
C0
C0
C0
C0
C0
C0
C0
C0
C0
C0
C0
ENDCHAR
STARTCHAR 00A2
ENCODING 162
SWIDTH 534 0
DWIDTH 23 0
BBX 20 32 2 -1
BITMAP
006000
006000
006000
006000
01FC00
0FFF00
1E0380
3800C0
300060
600070
600000
C00000
C00000
C00000
C00000
C00000
C00000
C00000
C00000
C00000
C00000
600000
600070
300060
3800C0
1E0380
07FF00
01FC00
006000
006000
006000
006000
ENDCHAR
STARTCHAR 00A3
ENCODING 163
SWIDTH 580 0
DWIDTH 25 0
BBX 22 31 1 0
BITMAP
001F80
007FE0
00E070
00C030
018018
01800C
01000C
010008
010000
010000
010000
010000
010000
010000
FFFF80
FFFF80
010000
010000
010000
010000
010000
010000
010000
010000
010000
010000
010000
030000
070000
FFFFFC
FFFFFC
ENDCHAR
STARTCHAR 00A4
ENCODING 164
SWIDTH 627 0
DWIDTH 27 0
BBX 24 24 1 4
BITMAP
E03E03
71FFC7
3B81EE
1E007C
1C0018
18000C
30000E
300006
600006
600003
600003
600003
600003
600003
600006
300006
30000E
18000C
1C0018
1E007C
3B81EE
71FFC7
E03E03
400000
ENDCHAR
STARTCHAR 00A5
ENCODING 165
SWIDTH 510 0
DWIDTH 22 0
BBX 22 31 0 0
BITMAP
C0000C
600018
700018
300030
180030
180060
0C0060
0C00C0
060180
070180
030300
018300
018600
00CE00
00CC00
007800
007800
003000
1FFFE0
1FFFE0
003000
003000
003000
003000
1FFFE0
1FFFE0
003000
003000
003000
003000
003000
ENDCHAR
STARTCHAR 00A6
ENCODING 166
SWIDTH 232 0
DWIDTH 10 0
BBX 2 36 4 -5
BITMAP
C0
C0
C0
C0
C0
C0
C0
C0
C0
C0
C0
C0
C0
C0
C0
00
00
00
00
00
00
00
C0
C0
C0
C0
C0
C0
C0
C0
C0
C0
C0
C0
C0
C0
ENDCHAR
STARTCHAR 00A7
ENCODING 167
SWIDTH 510 0
DWIDTH 22 0
BBX 19 35 2 -7
BITMAP
03F000
0FFC00
380E00
300300
600180
600180
6000C0
600000
700000
3C0000
1F8000
0FF800
3C7E00
700780
6001C0
C000C0
C00060
C00060
C00060
6000E0
3C00C0
1F81C0
03FF00
003E00
000700
000180
0000C0
0000C0
0000C0
6000C0
6001C0
300180
1C0700
0FFE00
03F800
ENDCHAR
STARTCHAR 00A8
ENCODING 168
SWIDTH 487 0
DWIDTH 21 0
BBX 11 3 5 36
BITMAP
E0E0
E0E0
E0E0
ENDCHAR
STARTCHAR 00A9
ENCODING 169
SWIDTH 743 0
DWIDTH 32 0
BBX 30 29 1 0
BITMAP
000FC000
007FF800
01F03E00
03800700
070001C0
0C0000C0
180FC060
383FF030
30703830
60601C18
60C00C18
60C00018
C1C0000C
C180000C
C180000C
C180000C
C180000C
C1C0000C
60C00018
60C00C18
60601C18
30783830
381FF070
1C07C0E0
0E0001C0
07800380
03E01F00
00FFFC00
001FE000
ENDCHAR
STARTCHAR 00AA
ENCODING 170
SWIDTH 301 0
DWIDTH 13 0
BBX 10 13 2 11
BITMAP
3E00
7F80
E180
C0C0
00C0
1FC0
7EC0
E0C0
C0C0
C1C0
C3C0
7EC0
1800
ENDCHAR
STARTCHAR 00AB
ENCODING 171
SWIDTH 510 0
DWIDTH 22 0
BBX 15 18 4 3
BITMAP
0204
030C
0618
0C38
1830
3860
30C0
6180
C380
C300
E180
60C0
30E0
1860
0C30
0E18
060C
030E
ENDCHAR
STARTCHAR 00AC
ENCODING 172
SWIDTH 603 0
DWIDTH 26 0
BBX 20 7 3 9
BITMAP
FFFFF0
FFFFF0
000030
000030
000030
000030
000030
ENDCHAR
STARTCHAR 00AD
ENCODING 173
SWIDTH 418 0
DWIDTH 18 0
BBX 13 2 3 13
BITMAP
FFF8
FFF8
ENDCHAR
STARTCHAR 00AE
ENCODING 174
SWIDTH 603 0
DWIDTH 26 0
BBX 20 20 3 13
BITMAP
00F000
07FE00
0E0700
180180
3000C0
61F860
611C60
C10C30
C10430
C10C30
C1F830
C11030
C11830
610860
610C60
3000C0
3801C0
1E0780
07FE00
01F800
ENDCHAR
STARTCHAR 00AF
ENCODING 175
SWIDTH 487 0
DWIDTH 21 0
BBX 11 2 5 36
BITMAP
FFE0
FFE0
ENDCHAR
STARTCHAR 00B0
ENCODING 176
SWIDTH 441 0
DWIDTH 19 0
BBX 16 15 1 16
BITMAP
07E0
1FF8
381C
300E
6006
4002
C003
C003
C003
4002
6006
700E
381C
1FF8
07E0
ENDCHAR
STARTCHAR 00B1
ENCODING 177
SWIDTH 603 0
DWIDTH 26 0
BBX 20 19 3 4
BITMAP
006000
006000
006000
006000
006000
006000
FFFFF0
FFFFF0
006000
006000
006000
006000
006000
006000
000000
000000
000000
FFFFF0
FFFFF0
ENDCHAR
STARTCHAR 00B2
ENCODING 178
SWIDTH 394 0
DWIDTH 17 0
BBX 13 20 2 11
BITMAP
0F80
3FE0
7070
6030
C010
C018
0018
0018
0030
0030
0060
01C0
0380
0700
0E00
1C00
3800
6000
FFF8
FFF8
ENDCHAR
STARTCHAR 00B3
ENCODING 179
SWIDTH 371 0
DWIDTH 16 0
BBX 12 20 2 11
BITMAP
FFF0
FFF0
00E0
00C0
0180
0300
0600
0C00
1F00
1FC0
00E0
0060
0030
0030
0030
0030
C060
E0E0
7FC0
1F00
ENDCHAR
STARTCHAR 00B4
ENCODING 180
SWIDTH 464 0
DWIDTH 20 0
BBX 4 6 8 35
BITMAP
30
30
60
60
40
C0
ENDCHAR
STARTCHAR 00B5
ENCODING 181
SWIDTH 580 0
DWIDTH 25 0
BBX 19 33 3 -10
BITMAP
C00060
C00060
C00060
C00060
C00060
C00060
C00060
C00060
C00060
C00060
C00060
C00060
C00060
C00060
C00060
C00060
C00060
E000E0
E000E0
F001E0
DC0760
CFFE60
C3F860
C00000
C00000
C00000
C00000
C00000
C00000
C00000
C00000
C00000
C00000
ENDCHAR
STARTCHAR 00B6
ENCODING 182
SWIDTH 580 0
DWIDTH 25 0
BBX 17 37 4 -6
BITMAP
03F980
0FF980
3FF980
3FF980
7FF980
7FF980
FFF980
FFF980
FFF980
FFF980
FFF980
FFF980
FFF980
7FF980
7FF980
3FF980
1FF980
0FF980
00F980
001980
001980
001980
001980
001980
001980
001980
001980
001980
001980
001980
001980
001980
001980
001980
001980
001980
001980
ENDCHAR
STARTCHAR 00B7
ENCODING 183
SWIDTH 209 0
DWIDTH 9 0
BBX 3 3 3 12
BITMAP
E0
E0
E0
ENDCHAR
STARTCHAR 00B8
ENCODING 184
SWIDTH 394 0
DWIDTH 17 0
BBX 7 11 5 -10
BITMAP
18
18
10
30
38
1C
0C
06
0C
FC
F8
ENDCHAR
STARTCHAR 00B9
ENCODING 185
SWIDTH 301 0
DWIDTH 13 0
BBX 5 19 3 12
BITMAP
38
78
D8
98
18
18
18
18
18
18
18
18
18
18
18
18
18
18
18
ENDCHAR
STARTCHAR 00BA
ENCODING 186
SWIDTH 348 0
DWIDTH 15 0
BBX 11 12 2 11
BITMAP
1F00
7F80
60C0
C0E0
C060
C060
C060
C060
C0C0
61C0
3F80
0E00
ENDCHAR
STARTCHAR 00BB
ENCODING 187
SWIDTH 510 0
DWIDTH 22 0
BBX 15 18 3 3
BITMAP
4100
E180
60C0
30E0
1860
0C30
0E18
060C
030E
0306
030C
0618
0C38
1830
3860
30C0
6180
C180
ENDCHAR
STARTCHAR 00BC
ENCODING 188
SWIDTH 929 0
DWIDTH 40 0
BBX 32 31 3 0
BITMAP
38000040
780000C0
D80001C0
98000380
18000300
18000600
18000E00
18001C00
18003800
18003000
18006000
1800E000
1801C060
180380C0
180300C0
180600C0
180E0180
181C0180
18380300
00300300
0060060C
00E0060C
01C00C0C
03800C0C
0300180C
07001FFF
0E001FFF
1C00000C
3800000C
3000000C
1000000C
ENDCHAR
STARTCHAR 00BD
ENCODING 189
SWIDTH 882 0
DWIDTH 38 0
BBX 33 31 3 0
BITMAP
3800004000
780000C000
D80001C000
9800038000
1800030000
1800060000
18000E0000
18001C0000
1800380000
1800300000
1800600000
1800E02000
1801C1FC00
1803838600
1803060300
1806060100
180E0C0180
181C000180
1838000180
0030000100
0060000300
00E0000600
01C0000C00
0380001800
0300003000
0600006000
0E0001C000
1C00038000
1800070000
30000FFF80
10000FFF80
ENDCHAR
STARTCHAR 00BE
ENCODING 190
SWIDTH 952 0
DWIDTH 41 0
BBX 36 31 2 0
BITMAP
FFF0000400
FFF0000E00
00E0001C00
00C0001800
0180003000
0300006000
060000E000
0C0001C000
1F00018000
1FC0030000
00E0070000
00600E0000
00301C0600
0030180600
0030300C00
0030700C00
C060E01800
E0E1C01800
7FC1803000
1F03003000
00070060C0
000E0060C0
001C00C0C0
001800C0C0
00300180C0
007001FFF0
00E001FFF0
01C00000C0
01800000C0
03800000C0
01000000C0
ENDCHAR
STARTCHAR 00BF
ENCODING 191
SWIDTH 510 0
DWIDTH 22 0
BBX 18 31 2 -8
BITMAP
00C000
00C000
00C000
000000
000000
000000
000000
000000
00C000
00C000
00C000
00C000
00C000
01C000
018000
070000
0E0000
1C0000
300000
600000
600000
C00000
C00000
C000C0
C00080
C00180
600180
700300
380F00
1FFC00
07F000
ENDCHAR
STARTCHAR 00C0
ENCODING 192
SWIDTH 603 0
DWIDTH 26 0
BBX 24 41 1 0
BITMAP
006000
006000
003000
003000
003000
001800
000000
000000
000000
000000
001800
001C00
003C00
003C00
006600
006600
006200
00C300
00C300
00C180
018180
018180
0180C0
0300C0
0300C0
060060
060060
060060
0C0030
0C0030
0C0018
1FFFF8
1FFFF8
18000C
30000C
30000C
600006
600006
600006
C00003
C00003
ENDCHAR
STARTCHAR 00C1
ENCODING 193
SWIDTH 603 0
DWIDTH 26 0
BBX 24 41 1 0
BITMAP
000600
000600
000400
000C00
000C00
000800
000000
000000
000000
000000
001800
001C00
003C00
003C00
006600
006600
006600
00C300
00C300
00C180
018180
018180
0180C0
0300C0
0300C0
060060
060060
060060
0C0030
0C0030
0C0018
1FFFF8
1FFFF8
18000C
30000C
30000C
600006
600006
600006
C00003
C00003
ENDCHAR
STARTCHAR 00C2
ENCODING 194
SWIDTH 603 0
DWIDTH 26 0
BBX 24 40 1 0
BITMAP
001C00
003C00
006600
00C300
01C180
000000
000000
000000
000000
001800
001C00
003C00
003C00
006600
006600
006600
00C300
00C300
00C180
018180
018180
0180C0
0300C0
0300C0
060060
060060
060060
0C0030
0C0030
0C0018
1FFFF8
1FFFF8
18000C
30000C
30000C
600006
600006
600006
C00003
C00003
ENDCHAR
STARTCHAR 00C3
ENCODING 195
SWIDTH 603 0
DWIDTH 26 0
BBX 24 40 1 0
BITMAP
00C0C0
01F0C0
033CC0
030F80
030300
000000
000000
000000
000000
001800
001C00
003C00
003C00
006600
006600
006600
00C300
00C300
00C180
018180
018180
0180C0
0300C0
0300C0
060060
060060
060060
0C0030
0C0030
0C0018
1FFFF8
1FFFF8
18000C
30000C
30000C
600006
600006
600006
C00003
C00003
ENDCHAR
STARTCHAR 00C4
ENCODING 196
SWIDTH 603 0
DWIDTH 26 0
BBX 24 39 1 0
BITMAP
01C180
01C180
01C180
000000
000000
000000
000000
000000
001800
001C00
003C00
003C00
006600
006600
006600
00C300
00C300
00C180
018180
018180
0180C0
0300C0
0300C0
060060
060060
060060
0C0030
0C0030
0C0018
1FFFF8
1FFFF8
18000C
30000C
30000C
600006
600006
600006
C00003
C00003
ENDCHAR
STARTCHAR 00C5
ENCODING 197
SWIDTH 603 0
DWIDTH 26 0
BBX 24 42 1 0
BITMAP
003C00
007E00
00E300
00C300
00C300
00C300
00E700
007E00
003C00
000000
000000
001800
001C00
003C00
003C00
006600
006600
006600
00C300
00C300
00C180
018180
018180
0180C0
0300C0
0300C0
060060
060060
060060
0C0030
0C0030
0C0018
1FFFF8
1FFFF8
18000C
30000C
30000C
600006
600006
600006
C00003
C00003
ENDCHAR
STARTCHAR 00C6
ENCODING 198
SWIDTH 905 0
DWIDTH 39 0
BBX 36 31 1 0
BITMAP
001FFFFFF0
001FFFFFF0
0030600000
0030600000
0060600000
0060600000
0060600000
00C0600000
00C0600000
00C0600000
0180600000
0180600000
0100600000
0300600000
03007FFF80
06007FFF80
0600600000
0600600000
0C00600000
0C00600000
0C00600000
1FFFE00000
1FFFE00000
1800600000
3000600000
3000600000
6000600000
6000600000
6000600000
C0007FFFF0
C0007FFFF0
ENDCHAR
STARTCHAR 00C7
ENCODING 199
SWIDTH 696 0
DWIDTH 30 0
BBX 27 41 1 -10
BITMAP
003FC000
01FFF800
03C01E00
07000700
0C000380
18000180
380000C0
300000E0
70000060
60000060
60000000
60000000
C0000000
C0000000
C0000000
C0000000
C0000000
C0000000
C0000000
60000000
60000000
60000060
60000060
300000E0
380000C0
18000180
0C000380
07000700
03C01E00
01FFF800
003FE000
00030000
00030000
00060000
00078000
00018000
0000C000
0000C000
00018000
000F8000
000E0000
ENDCHAR
STARTCHAR 00C8
ENCODING 200
SWIDTH 557 0
DWIDTH 24 0
BBX 19 41 3 0
BITMAP
018000
00C000
00C000
00C000
006000
006000
000000
000000
000000
000000
FFFFE0
FFFFE0
C00000
C00000
C00000
C00000
C00000
C00000
C00000
C00000
C00000
C00000
C00000
C00000
FFFF00
FFFF00
C00000
C00000
C00000
C00000
C00000
C00000
C00000
C00000
C00000
C00000
C00000
C00000
C00000
FFFFE0
FFFFE0
ENDCHAR
STARTCHAR 00C9
ENCODING 201
SWIDTH 557 0
DWIDTH 24 0
BBX 19 41 3 0
BITMAP
001800
001800
003000
003000
002000
006000
000000
000000
000000
000000
FFFFE0
FFFFE0
C00000
C00000
C00000
C00000
C00000
C00000
C00000
C00000
C00000
C00000
C00000
C00000
FFFF00
FFFF00
C00000
C00000
C00000
C00000
C00000
C00000
C00000
C00000
C00000
C00000
C00000
C00000
C00000
FFFFE0
FFFFE0
ENDCHAR
STARTCHAR 00CA
ENCODING 202
SWIDTH 557 0
DWIDTH 24 0
BBX 19 40 3 0
BITMAP
00E000
01F000
033000
071800
060C00
080000
000000
000000
000000
FFFFE0
FFFFE0
C00000
C00000
C00000
C00000
C00000
C00000
C00000
C00000
C00000
C00000
C00000
C00000
FFFF00
FFFF00
C00000
C00000
C00000
C00000
C00000
C00000
C00000
C00000
C00000
C00000
C00000
C00000
C00000
FFFFE0
FFFFE0
ENDCHAR
STARTCHAR 00CB
ENCODING 203
SWIDTH 557 0
DWIDTH 24 0
BBX 19 39 3 0
BITMAP
0C1C00
0C1C00
0C1C00
000000
000000
000000
000000
000000
FFFFE0
FFFFE0
C00000
C00000
C00000
C00000
C00000
C00000
C00000
C00000
C00000
C00000
C00000
C00000
FFFF00
FFFF00
C00000
C00000
C00000
C00000
C00000
C00000
C00000
C00000
C00000
C00000
C00000
C00000
C00000
FFFFE0
FFFFE0
ENDCHAR
STARTCHAR 00CC
ENCODING 204
SWIDTH 209 0
DWIDTH 9 0
BBX 4 41 1 0
BITMAP
C0
60
60
60
30
30
00
00
00
00
30
30
30
30
30
30
30
30
30
30
30
30
30
30
30
30
30
30
30
30
30
30
30
30
30
30
30
30
30
30
30
ENDCHAR
STARTCHAR 00CD
ENCODING 205
SWIDTH 209 0
DWIDTH 9 0
BBX 4 41 3 0
BITMAP
30
30
30
60
60
60
00
00
00
00
C0
C0
C0
C0
C0
C0
C0
C0
C0
C0
C0
C0
C0
C0
C0
C0
C0
C0
C0
C0
C0
C0
C0
C0
C0
C0
C0
C0
C0
C0
C0
ENDCHAR
STARTCHAR 00CE
ENCODING 206
SWIDTH 209 0
DWIDTH 9 0
BBX 9 40 0 0
BITMAP
1C00
3E00
7600
E300
C180
0000
0000
0000
0000
1800
1800
1800
1800
1800
1800
1800
1800
1800
1800
1800
1800
1800
1800
1800
1800
1800
1800
1800
1800
1800
1800
1800
1800
1800
1800
1800
1800
1800
1800
1800
ENDCHAR
STARTCHAR 00CF
ENCODING 207
SWIDTH 209 0
DWIDTH 9 0
BBX 11 39 -1 0
BITMAP
E0E0
E0E0
E0E0
0000
0000
0000
0000
0000
0C00
0C00
0C00
0C00
0C00
0C00
0C00
0C00
0C00
0C00
0C00
0C00
0C00
0C00
0C00
0C00
0C00
0C00
0C00
0C00
0C00
0C00
0C00
0C00
0C00
0C00
0C00
0C00
0C00
0C00
0C00
ENDCHAR
STARTCHAR 00D0
ENCODING 208
SWIDTH 650 0
DWIDTH 28 0
BBX 26 31 0 0
BITMAP
1FFF8000
1FFFF000
10007800
10001C00
10000E00
10000700
10000300
10000180
10000180
10000180
10000180
100000C0
100000C0
100000C0
FFF800C0
FFF800C0
100000C0
100000C0
100000C0
100000C0
10000180
10000180
10000180
10000300
10000300
10000600
10000E00
10001C00
10007800
1FFFF000
1FFF8000
ENDCHAR
STARTCHAR 00D1
ENCODING 209
SWIDTH 673 0
DWIDTH 29 0
BBX 22 39 3 0
BITMAP
00C0C0
03F0C0
0338C0
030F80
030300
000000
000000
000000
C00004
E00004
F00004
F00004
D80004
DC0004
CC0004
C60004
C70004
C30004
C18004
C1C004
C0C004
C06004
C07004
C03004
C01804
C00C04
C00C04
C00604
C00304
C00304
C00184
C000C4
C000C4
C00064
C00034
C00034
C0001C
C0000C
C0000C
ENDCHAR
STARTCHAR 00D2
ENCODING 210
SWIDTH 696 0
DWIDTH 30 0
BBX 28 40 1 0
BITMAP
00080000
000C0000
000C0000
00060000
00060000
00060000
00000000
00000000
00000000
003FC000
01FFF800
03C03E00
07000700
0C000380
18000180
380000C0
300000E0
70000060
60000060
60000030
60000030
C0000030
C0000030
C0000030
C0000030
C0000030
C0000030
C0000030
60000030
60000030
60000060
60000060
300000E0
380000C0
18000180
0C000380
07000700
03C01E00
01FFF800
003FE000
ENDCHAR
STARTCHAR 00D3
ENCODING 211
SWIDTH 696 0
DWIDTH 30 0
BBX 28 40 1 0
BITMAP
0000C000
00018000
00018000
00010000
00030000
00030000
00000000
00000000
00000000
003FC000
01FFF800
03C03E00
07000700
0C000380
18000180
380000C0
300000E0
70000060
60000060
60000030
60000030
C0000030
C0000030
C0000030
C0000030
C0000030
C0000030
C0000030
60000030
60000030
60000060
60000060
300000E0
380000C0
18000180
0C000380
07000700
03C01E00
01FFF800
003FE000
ENDCHAR
STARTCHAR 00D4
ENCODING 212
SWIDTH 696 0
DWIDTH 30 0
BBX 28 40 1 0
BITMAP
00060000
000F0000
000D8000
0019C000
0030C000
00606000
00000000
00000000
00000000
003FC000
01FFF800
03C03E00
07000700
0C000380
18000180
380000C0
300000E0
70000060
60000060
60000030
60000030
C0000030
C0000030
C0000030
C0000030
C0000030
C0000030
C0000030
60000030
60000030
60000060
60000060
300000E0
380000C0
18000180
0C000380
07000700
03C01E00
01FFF800
003FE000
ENDCHAR
STARTCHAR 00D5
ENCODING 213
SWIDTH 696 0
DWIDTH 30 0
BBX 28 38 1 0
BITMAP
003C1000
007E1000
0043F000
0041E000
00000000
00000000
00000000
003FC000
01FFF800
03C03E00
07000700
0C000380
18000180
380000C0
300000E0
70000060
60000060
60000030
60000030
C0000030
C0000030
C0000030
C0000030
C0000030
C0000030
C0000030
60000030
60000030
60000060
60000060
300000E0
380000C0
18000180
0C000380
07000700
03C01E00
01FFF800
003FE000
ENDCHAR
STARTCHAR 00D6
ENCODING 214
SWIDTH 696 0
DWIDTH 30 0
BBX 28 38 1 0
BITMAP
00706000
00706000
00706000
00000000
00000000
00000000
00000000
003FC000
01FFF800
03C03E00
07000700
0C000380
18000180
380000C0
300000E0
70000060
60000060
60000030
60000030
C0000030
C0000030
C0000030
C0000030
C0000030
C0000030
C0000030
60000030
60000030
60000060
60000060
300000E0
380000C0
18000180
0C000380
07000700
03C01E00
01FFF800
003FE000
ENDCHAR
STARTCHAR 00D7
ENCODING 215
SWIDTH 464 0
DWIDTH 20 0
BBX 15 15 3 8
BITMAP
8004
C00E
601C
3038
1870
0CE0
07C0
0380
0780
0EC0
1C60
3830
7018
E00C
C004
ENDCHAR
STARTCHAR 00D8
ENCODING 216
SWIDTH 696 0
DWIDTH 30 0
BBX 30 31 0 0
BITMAP
001FE00C
00FFFC1C
01E01F18
038003B0
060001E0
0C0000E0
1C0001E0
18000370
38000630
30000C30
30001818
30003818
60007018
6000E018
6001C018
60038018
60070018
600E0018
601C0018
30380018
30700018
30E00030
31C00030
1B800070
1F000060
0E0000C0
1E0001C0
3F800380
71E00F00
E0FFFC00
401FE000
ENDCHAR
STARTCHAR 00D9
ENCODING 217
SWIDTH 696 0
DWIDTH 30 0
BBX 24 41 3 0
BITMAP
006000
003000
003000
003000
001800
001800
000000
000000
000000
000000
C00003
C00003
C00003
C00003
C00003
C00003
C00003
C00003
C00003
C00003
C00003
C00003
C00003
C00003
C00003
C00003
C00003
C00003
C00003
C00003
C00003
C00003
C00006
600006
60000E
70000C
38001C
1C0038
0F00F0
03FFC0
00FF00
ENDCHAR
STARTCHAR 00DA
ENCODING 218
SWIDTH 696 0
DWIDTH 30 0
BBX 24 41 3 0
BITMAP
000C00
000C00
000C00
001800
001800
001800
000000
000000
000000
000000
C00003
C00003
C00003
C00003
C00003
C00003
C00003
C00003
C00003
C00003
C00003
C00003
C00003
C00003
C00003
C00003
C00003
C00003
C00003
C00003
C00003
C00003
C00006
600006
60000E
70000C
38001C
1C0038
0F00F0
03FFC0
00FF00
ENDCHAR
STARTCHAR 00DB
ENCODING 219
SWIDTH 696 0
DWIDTH 30 0
BBX 24 40 3 0
BITMAP
003800
003C00
006600
00C300
018380
000000
000000
000000
000000
C00003
C00003
C00003
C00003
C00003
C00003
C00003
C00003
C00003
C00003
C00003
C00003
C00003
C00003
C00003
C00003
C00003
C00003
C00003
C00003
C00003
C00003
C00006
600006
60000E
70000C
38001C
1C0038
0F00F0
03FFC0
00FF00
ENDCHAR
STARTCHAR 00DC
ENCODING 220
SWIDTH 696 0
DWIDTH 30 0
BBX 24 39 3 0
BITMAP
018380
018380
018380
000000
000000
000000
000000
000000
C00003
C00003
C00003
C00003
C00003
C00003
C00003
C00003
C00003
C00003
C00003
C00003
C00003
C00003
C00003
C00003
C00003
C00003
C00003
C00003
C00003
C00003
C00006
600006
60000E
70000C
38001C
1C0038
0F00F0
03FFC0
00FF00
ENDCHAR
STARTCHAR 00DD
ENCODING 221
SWIDTH 510 0
DWIDTH 22 0
BBX 22 41 0 0
BITMAP
000C00
001800
001800
001000
003000
003000
000000
000000
000000
000000
C0000C
600018
700018
300030
180030
180060
0C0060
0C00C0
060180
070180
030300
018300
018600
00C600
00CC00
007800
007800
003000
003000
003000
003000
003000
003000
003000
003000
003000
003000
003000
003000
003000
003000
ENDCHAR
STARTCHAR 00DE
ENCODING 222
SWIDTH 580 0
DWIDTH 25 0
BBX 20 31 3 0
BITMAP
C00000
C00000
C00000
C00000
C00000
C00000
FFF800
FFFF00
C00780
C001C0
C000E0
C00060
C00030
C00030
C00030
C00030
C00030
C00030
C00030
C00060
C000E0
C001C0
C00780
FFFF00
FFF800
C00000
C00000
C00000
C00000
C00000
C00000
ENDCHAR
STARTCHAR 00DF
ENCODING 223
SWIDTH 580 0
DWIDTH 25 0
BBX 19 31 3 0
BITMAP
07E000
1FF800
381E00
700600
600300
C00300
C00300
C00300
C00300
C00300
C00300
C00600
C01E00
C0F800
C0FC00
C01F00
C00380
C001C0
C000C0
C00060
C00060
C00060
C00060
C00060
C00060
C000E0
C000C0
C001C0
C00780
C3FE00
C3F800
ENDCHAR
STARTCHAR 00E0
ENCODING 224
SWIDTH 534 0
DWIDTH 23 0
BBX 19 32 2 0
BITMAP
018000
008000
00C000
00C000
006000
006000
000000
000000
000000
03F800
0FFF00
1C0380
3801C0
7000C0
6000C0
200060
000060
000060
0007E0
03FFE0
1FC060
380060
600060
C00060
C000E0
C000E0
C000E0
C001E0
E00360
700E60
3FFC60
0FF000
ENDCHAR
STARTCHAR 00E1
ENCODING 225
SWIDTH 534 0
DWIDTH 23 0
BBX 19 32 2 0
BITMAP
001800
003000
003000
003000
006000
006000
000000
000000
000000
03F800
0FFF00
1C0380
3801C0
7000C0
6000C0
200060
000060
000060
0007E0
03FFE0
1FC060
380060
600060
C00060
C000E0
C000E0
C000E0
C001E0
E00360
700E60
3FFC60
0FF000
ENDCHAR
STARTCHAR 00E2
ENCODING 226
SWIDTH 534 0
DWIDTH 23 0
BBX 19 31 2 0
BITMAP
00F000
00F000
019800
030C00
060600
000000
000000
000000
03F800
0FFF00
1C0380
3801C0
7000C0
6000C0
200060
000060
000060
0007E0
03FFE0
1FC060
380060
600060
C00060
C000E0
C000E0
C000E0
C001E0
E00360
700E60
3FFC60
0FF000
ENDCHAR
STARTCHAR 00E3
ENCODING 227
SWIDTH 534 0
DWIDTH 23 0
BBX 19 30 2 0
BITMAP
078300
0FE300
0C7F00
0C1E00
000000
000000
000000
03F800
0FFF00
1C0380
3801C0
7000C0
6000C0
200060
000060
000060
0007E0
03FFE0
1FC060
380060
600060
C00060
C000E0
C000E0
C000E0
C001E0
E00360
700E60
3FFC60
0FF000
ENDCHAR
STARTCHAR 00E4
ENCODING 228
SWIDTH 534 0
DWIDTH 23 0
BBX 19 31 2 0
BITMAP
070600
070600
070600
000000
000000
000000
000000
000000
03F800
0FFF00
1C0380
3801C0
7000C0
6000C0
200060
000060
000060
0007E0
03FFE0
1FC060
380060
600060
C00060
C000E0
C000E0
C000E0
C001E0
E00360
700E60
3FFC60
0FF000
ENDCHAR
STARTCHAR 00E5
ENCODING 229
SWIDTH 534 0
DWIDTH 23 0
BBX 19 33 2 0
BITMAP
00F000
01F800
030C00
030C00
030C00
030C00
01F800
00F000
000000
000000
03F800
0FFF00
1C0380
3801C0
7000C0
6000C0
200060
000060
000060
0007E0
03FFE0
1FC060
380060
600060
C00060
C000E0
C000E0
C000E0
C001E0
E00360
700E60
3FFC60
0FF000
ENDCHAR
STARTCHAR 00E6
ENCODING 230
SWIDTH 952 0
DWIDTH 41 0
BBX 37 23 2 0
BITMAP
03F800FC00
0FFE03FF80
3C038E01C0
30019C00E0
6000D80060
6000F00030
0000700030
0000600010
0000600018
0000600018
07FFFFFFF8
3FFFFFFFF8
7800600000
E000600000
C000600000
C000E00000
C000F00000
C000F00030
C001980030
E0031C00E0
700E0E01C0
3FFC03FF80
0FF000FE00
ENDCHAR
STARTCHAR 00E7
ENCODING 231
SWIDTH 534 0
DWIDTH 23 0
BBX 20 33 2 -10
BITMAP
01FC00
0FFF00
1E0380
3800C0
700060
600030
600000
C00000
C00000
C00000
C00000
C00000
C00000
C00000
C00000
C00000
600000
600020
300060
3800C0
1E0380
0FFF00
01FC00
006000
006000
00C000
00F000
003800
001800
001800
003800
01F000
01C000
ENDCHAR
STARTCHAR 00E8
ENCODING 232
SWIDTH 580 0
DWIDTH 25 0
BBX 21 32 2 0
BITMAP
00C000
00C000
006000
006000
006000
003000
000000
000000
000000
01FC00
0FFF00
1E0380
3800C0
700060
600030
E00030
C00030
C00018
C00018
FFFFF8
FFFFF8
C00000
C00000
C00000
C00000
600000
600030
700070
3800E0
1E03C0
07FF00
01FC00
ENDCHAR
STARTCHAR 00E9
ENCODING 233
SWIDTH 580 0
DWIDTH 25 0
BBX 21 32 2 0
BITMAP
000C00
001800
001800
001800
003000
003000
000000
000000
000000
01FC00
0FFF00
1E0380
3800C0
700060
600030
E00030
C00030
C00018
C00018
FFFFF8
FFFFF8
C00000
C00000
C00000
C00000
600000
600030
700070
3800E0
1E03C0
07FF00
01FC00
ENDCHAR
STARTCHAR 00EA
ENCODING 234
SWIDTH 580 0
DWIDTH 25 0
BBX 21 32 2 0
BITMAP
006000
007000
00D800
018C00
030E00
060600
000000
000000
000000
01FC00
0FFF00
1E0380
3800C0
700060
600030
E00030
C00030
C00018
C00018
FFFFF8
FFFFF8
C00000
C00000
C00000
C00000
600000
600030
700070
3800E0
1E03C0
07FF00
01FC00
ENDCHAR
STARTCHAR 00EB
ENCODING 235
SWIDTH 580 0
DWIDTH 25 0
BBX 21 31 2 0
BITMAP
070700
070700
070700
000000
000000
000000
000000
000000
01FC00
0FFF00
1E0380
3800C0
700060
600030
E00030
C00030
C00018
C00018
FFFFF8
FFFFF8
C00000
C00000
C00000
C00000
600000
600030
700070
3800E0
1E03C0
07FF00
01FC00
ENDCHAR
STARTCHAR 00EC
ENCODING 236
SWIDTH 209 0
DWIDTH 9 0
BBX 4 33 1 0
BITMAP
C0
60
60
60
30
30
00
00
00
00
30
30
30
30
30
30
30
30
30
30
30
30
30
30
30
30
30
30
30
30
30
30
30
ENDCHAR
STARTCHAR 00ED
ENCODING 237
SWIDTH 209 0
DWIDTH 9 0
BBX 4 33 3 0
BITMAP
30
30
30
60
60
60
00
00
00
00
C0
C0
C0
C0
C0
C0
C0
C0
C0
C0
C0
C0
C0
C0
C0
C0
C0
C0
C0
C0
C0
C0
C0
ENDCHAR
STARTCHAR 00EE
ENCODING 238
SWIDTH 209 0
DWIDTH 9 0
BBX 9 32 0 0
BITMAP
1C00
3E00
7600
E300
C180
0000
0000
0000
0000
1800
1800
1800
1800
1800
1800
1800
1800
1800
1800
1800
1800
1800
1800
1800
1800
1800
1800
1800
1800
1800
1800
1800
ENDCHAR
STARTCHAR 00EF
ENCODING 239
SWIDTH 209 0
DWIDTH 9 0
BBX 11 31 -1 0
BITMAP
E0E0
E0E0
E0E0
0000
0000
0000
0000
0000
0C00
0C00
0C00
0C00
0C00
0C00
0C00
0C00
0C00
0C00
0C00
0C00
0C00
0C00
0C00
0C00
0C00
0C00
0C00
0C00
0C00
0C00
0C00
ENDCHAR
STARTCHAR 00F0
ENCODING 240
SWIDTH 580 0
DWIDTH 25 0
BBX 21 33 2 0
BITMAP
000100
000380
00E300
00FE00
001E00
001B80
0039C0
0030C0
000060
000060
000030
01FC30
0FFF30
1C03D8
3800F8
700078
600038
C00038
C00018
C00018
C00018
C00018
C00018
C00018
C00018
C00010
C00030
600030
700060
3800E0
1C03C0
0FFF00
03FC00
ENDCHAR
STARTCHAR 00F1
ENCODING 241
SWIDTH 580 0
DWIDTH 25 0
BBX 19 31 3 0
BITMAP
060200
0F8200
18E600
187E00
081800
000000
000000
000000
C3F800
CFFE00
DC0700
F00180
F000C0
E000C0
C00040
C00060
C00060
C00060
C00060
C00060
C00060
C00060
C00060
C00060
C00060
C00060
C00060
C00060
C00060
C00060
C00060
ENDCHAR
STARTCHAR 00F2
ENCODING 242
SWIDTH 580 0
DWIDTH 25 0
BBX 21 32 2 0
BITMAP
018000
00C000
00C000
00C000
006000
006000
000000
000000
000000
01FC00
0FFF00
1E03C0
3800C0
700060
600030
600030
C00030
C00018
C00018
C00018
C00018
C00018
C00018
C00018
C00030
600030
600030
700060
3800C0
1E03C0
07FF00
01FC00
ENDCHAR
STARTCHAR 00F3
ENCODING 243
SWIDTH 580 0
DWIDTH 25 0
BBX 21 32 2 0
BITMAP
001800
001800
001000
003000
003000
006000
000000
000000
000000
01FC00
0FFF00
1E03C0
3800C0
700060
600030
600030
C00030
C00018
C00018
C00018
C00018
C00018
C00018
C00018
C00030
600030
600030
700060
3800C0
1E03C0
07FF00
01FC00
ENDCHAR
STARTCHAR 00F4
ENCODING 244
SWIDTH 580 0
DWIDTH 25 0
BBX 21 32 2 0
BITMAP
006000
007000
00D800
018C00
030E00
060600
000000
000000
000000
01FC00
0FFF00
1E03C0
3800C0
700060
600030
600030
C00030
C00018
C00018
C00018
C00018
C00018
C00018
C00018
C00030
600030
600030
700060
3800C0
1E03C0
07FF00
01FC00
ENDCHAR
STARTCHAR 00F5
ENCODING 245
SWIDTH 580 0
DWIDTH 25 0
BBX 21 30 2 0
BITMAP
038100
07E100
0C7F00
0C1E00
000000
000000
000000
01FC00
0FFF00
1E03C0
3800C0
700060
600030
600030
C00030
C00018
C00018
C00018
C00018
C00018
C00018
C00018
C00030
600030
600030
700060
3800C0
1E03C0
07FF00
01FC00
ENDCHAR
STARTCHAR 00F6
ENCODING 246
SWIDTH 580 0
DWIDTH 25 0
BBX 21 31 2 0
BITMAP
070700
070700
070700
000000
000000
000000
000000
000000
01FC00
0FFF00
1E03C0
3800C0
700060
600030
600030
C00030
C00018
C00018
C00018
C00018
C00018
C00018
C00018
C00030
600030
600030
700060
3800C0
1E03C0
07FF00
01FC00
ENDCHAR
STARTCHAR 00F7
ENCODING 247
SWIDTH 534 0
DWIDTH 23 0
BBX 18 13 3 9
BITMAP
01C000
01C000
01C000
000000
000000
FFFFC0
FFFFC0
000000
000000
000000
01C000
01C000
01C000
ENDCHAR
STARTCHAR 00F8
ENCODING 248
SWIDTH 580 0
DWIDTH 25 0
BBX 23 23 1 0
BITMAP
00FE04
03FF8E
0F01FC
1C0078
180038
300078
3000D8
60019C
60030C
600E0C
601C0C
60380C
60700C
60C00C
61800C
630018
660018
3C0018
380030
3C0060
7F01C0
E7FF80
80FE00
ENDCHAR
STARTCHAR 00F9
ENCODING 249
SWIDTH 580 0
DWIDTH 25 0
BBX 19 33 3 0
BITMAP
018000
018000
008000
00C000
00C000
004000
000000
000000
000000
000000
800060
800060
800060
800060
800060
800060
800060
800060
800060
800060
800060
800060
800060
800060
C00060
C000E0
C000E0
C000E0
6001E0
3003E0
380760
0FFC60
03F060
ENDCHAR
STARTCHAR 00FA
ENCODING 250
SWIDTH 580 0
DWIDTH 25 0
BBX 19 33 3 0
BITMAP
003000
003000
006000
006000
006000
00C000
000000
000000
000000
000000
800060
800060
800060
800060
800060
800060
800060
800060
800060
800060
800060
800060
800060
800060
C00060
C000E0
C000E0
C000E0
6001E0
3003E0
380760
0FFC60
03F060
ENDCHAR
STARTCHAR 00FB
ENCODING 251
SWIDTH 580 0
DWIDTH 25 0
BBX 19 32 3 0
BITMAP
00E000
01E000
033000
061800
0E0C00
000000
000000
000000
000000
800060
800060
800060
800060
800060
800060
800060
800060
800060
800060
800060
800060
800060
800060
C00060
C000E0
C000E0
C000E0
6001E0
3003E0
380760
0FFC60
03F060
ENDCHAR
STARTCHAR 00FC
ENCODING 252
SWIDTH 580 0
DWIDTH 25 0
BBX 19 31 3 0
BITMAP
0E0C00
0E0C00
0E0C00
000000
000000
000000
000000
000000
800060
800060
800060
800060
800060
800060
800060
800060
800060
800060
800060
800060
800060
800060
C00060
C000E0
C000E0
C000E0
6001E0
3003E0
380760
0FFC60
03F060
ENDCHAR
STARTCHAR 00FD
ENCODING 253
SWIDTH 510 0
DWIDTH 22 0
BBX 20 44 1 -11
BITMAP
001800
003000
003000
003000
006000
006000
000000
000000
000000
000000
C00030
C00060
600060
6000C0
3000C0
3000C0
300180
180180
180180
0C0300
0C0300
060300
060600
060600
030400
030C00
018C00
019800
019800
00D800
00F000
007000
007000
006000
006000
004000
00C000
00C000
018000
018000
018000
030000
030000
030000
ENDCHAR
STARTCHAR 00FE
ENCODING 254
SWIDTH 580 0
DWIDTH 25 0
BBX 20 41 3 -10
BITMAP
C00000
C00000
C00000
C00000
C00000
C00000
C00000
C00000
C1F800
C7FF00
CE0780
D801C0
F000C0
E00060
E00060
C00030
C00030
C00030
C00030
C00030
C00030
C00030
C00030
C00030
E00060
E00060
F000C0
D801C0
CC0780
C7FE00
C1F800
C00000
C00000
C00000
C00000
C00000
C00000
C00000
C00000
C00000
C00000
ENDCHAR
STARTCHAR 00FF
ENCODING 255
SWIDTH 510 0
DWIDTH 22 0
BBX 20 42 1 -11
BITMAP
060600
060600
060600
000000
000000
000000
000000
000000
C00030
C00060
600060
6000C0
3000C0
3000C0
300180
180180
180180
0C0300
0C0300
060300
060600
060600
030400
030C00
018C00
019800
019800
00D800
00F000
007000
007000
006000
006000
004000
00C000
00C000
018000
018000
018000
030000
030000
030000
ENDCHAR
ENDFONT
